solid ASCII
  facet normal 0.000000e+00 0.000000e+00 -1.000000e+00
    outer loop
      vertex   2.000000e+01 0.000000e+00 -5.000000e-01
      vertex   -2.000000e+01 0.000000e+00 -5.000000e-01
      vertex   2.000000e+01 5.000000e+01 -5.000000e-01
    endloop
  endfacet
  facet normal -0.000000e+00 0.000000e+00 -1.000000e+00
    outer loop
      vertex   2.000000e+01 5.000000e+01 -5.000000e-01
      vertex   -2.000000e+01 0.000000e+00 -5.000000e-01
      vertex   -2.000000e+01 5.000000e+01 -5.000000e-01
    endloop
  endfacet
  facet normal -1.000000e+00 7.105427e-17 0.000000e+00
    outer loop
      vertex   -2.000000e+01 0.000000e+00 5.000000e-01
      vertex   -2.000000e+01 5.000000e+01 5.000000e-01
      vertex   -2.000000e+01 0.000000e+00 -5.000000e-01
    endloop
  endfacet
  facet normal -1.000000e+00 7.105427e-17 0.000000e+00
    outer loop
      vertex   -2.000000e+01 0.000000e+00 -5.000000e-01
      vertex   -2.000000e+01 5.000000e+01 5.000000e-01
      vertex   -2.000000e+01 5.000000e+01 -5.000000e-01
    endloop
  endfacet
  facet normal -0.000000e+00 1.000000e+00 0.000000e+00
    outer loop
      vertex   -2.000000e+01 5.000000e+01 5.000000e-01
      vertex   2.000000e+01 5.000000e+01 5.000000e-01
      vertex   -2.000000e+01 5.000000e+01 -5.000000e-01
    endloop
  endfacet
  facet normal 0.000000e+00 1.000000e+00 0.000000e+00
    outer loop
      vertex   -2.000000e+01 5.000000e+01 -5.000000e-01
      vertex   2.000000e+01 5.000000e+01 5.000000e-01
      vertex   2.000000e+01 5.000000e+01 -5.000000e-01
    endloop
  endfacet
  facet normal 1.000000e+00 0.000000e+00 0.000000e+00
    outer loop
      vertex   2.000000e+01 5.000000e+01 5.000000e-01
      vertex   2.000000e+01 0.000000e+00 5.000000e-01
      vertex   2.000000e+01 5.000000e+01 -5.000000e-01
    endloop
  endfacet
  facet normal 1.000000e+00 0.000000e+00 0.000000e+00
    outer loop
      vertex   2.000000e+01 5.000000e+01 -5.000000e-01
      vertex   2.000000e+01 0.000000e+00 5.000000e-01
      vertex   2.000000e+01 0.000000e+00 -5.000000e-01
    endloop
  endfacet
  facet normal -0.000000e+00 -1.000000e+00 -0.000000e+00
    outer loop
      vertex   2.000000e+01 0.000000e+00 5.000000e-01
      vertex   -2.000000e+01 0.000000e+00 5.000000e-01
      vertex   2.000000e+01 0.000000e+00 -5.000000e-01
    endloop
  endfacet
  facet normal 0.000000e+00 -1.000000e+00 0.000000e+00
    outer loop
      vertex   2.000000e+01 0.000000e+00 -5.000000e-01
      vertex   -2.000000e+01 0.000000e+00 5.000000e-01
      vertex   -2.000000e+01 0.000000e+00 -5.000000e-01
    endloop
  endfacet
  facet normal 0.000000e+00 0.000000e+00 1.000000e+00
    outer loop
      vertex   -2.000000e+01 0.000000e+00 5.000000e-01
      vertex   2.000000e+01 0.000000e+00 5.000000e-01
      vertex   -2.000000e+01 5.000000e+01 5.000000e-01
    endloop
  endfacet
  facet normal -0.000000e+00 0.000000e+00 1.000000e+00
    outer loop
      vertex   -2.000000e+01 5.000000e+01 5.000000e-01
      vertex   2.000000e+01 0.000000e+00 5.000000e-01
      vertex   2.000000e+01 5.000000e+01 5.000000e-01
    endloop
  endfacet
endsolid
