<?xml version="1.0" encoding="UTF-8" standalone="no"?>
<!-- Created with Inkscape (http://www.inkscape.org/) -->

<svg
   width="210mm"
   height="297mm"
   viewBox="0 0 210 297"
   version="1.1"
   id="svg5"
   inkscape:version="1.1 (c68e22c387, 2021-05-23)"
   sodipodi:docname="TrainUS_v3.svg"
   xmlns:inkscape="http://www.inkscape.org/namespaces/inkscape"
   xmlns:sodipodi="http://sodipodi.sourceforge.net/DTD/sodipodi-0.dtd"
   xmlns="http://www.w3.org/2000/svg"
   xmlns:svg="http://www.w3.org/2000/svg">
  <sodipodi:namedview
     id="namedview7"
     pagecolor="#ffffff"
     bordercolor="#666666"
     borderopacity="1.0"
     inkscape:pageshadow="2"
     inkscape:pageopacity="0.0"
     inkscape:pagecheckerboard="0"
     inkscape:document-units="mm"
     showgrid="false"
     inkscape:zoom="0.9050967"
     inkscape:cx="643.02521"
     inkscape:cy="214.89417"
     inkscape:window-width="1920"
     inkscape:window-height="1017"
     inkscape:window-x="1912"
     inkscape:window-y="-8"
     inkscape:window-maximized="1"
     inkscape:current-layer="layer1"
     showguides="true"
     inkscape:guide-bbox="true" />
  <defs
     id="defs2">
    <filter
       style="color-interpolation-filters:sRGB;"
       inkscape:label="Fade to Black or White"
       id="filter6727"
       x="0"
       y="0"
       width="1"
       height="1">
      <feColorMatrix
         values="1 0 0 0 0 0 1 0 0 0 0 0 1 0 0 0 0 0 1 0"
         id="feColorMatrix6725" />
    </filter>
  </defs>
  <g
     inkscape:label="Capa 1"
     inkscape:groupmode="layer"
     id="layer1">
    <g
       id="g1094"
       inkscape:export-filename="C:\Users\MaríaNayraPumarCarre\Desktop\g1094.png"
       inkscape:export-xdpi="96"
       inkscape:export-ydpi="96">
      <g
         id="g1427"
         transform="translate(-174.81098,17.539563)">
        <path
           d="m 295.64424,18.615736 c -3.49465,0 -4.8925,1.910407 -4.8925,4.519741 0,2.189976 0.9785,4.543036 5.17207,4.543036 h 3.65773 c 1.9337,0 2.46954,0.931905 2.46954,1.957 0,1.141584 -0.67563,1.957 -2.16667,1.957 h -8.8531 v 2.749121 h 8.7599 c 3.58784,0 5.00899,-1.957003 5.00899,-4.612931 0,-2.25987 -1.00179,-4.636226 -5.28856,-4.636226 h -3.68102 c -1.84051,0 -2.32976,-0.908608 -2.32976,-1.86381 0,-1.094988 0.62903,-1.86381 2.05019,-1.86381 h 3.93541 v -2.749121 z"
           style="font-size:10.5833px;line-height:1.25;font-family:Nasalization;-inkscape-font-specification:Nasalization;fill:#7fbd32;fill-opacity:1;stroke-width:0.582442"
           id="path1100"
           sodipodi:nodetypes="ssssssccssssssccs" />
        <path
           d="m 282.75343,53.563885 c 0.0103,-0.009 0.24291,-0.0333 0.51914,-0.0476 2.09078,-0.13811 4.70072,-0.7906 6.90581,-1.72883 2.47181,-1.05255 4.89122,-2.63851 6.61531,-4.33877 0.39053,-0.38577 0.48579,-0.5096 0.57151,-0.74773 0.28576,-0.76202 -0.0857,-1.65264 -0.86204,-2.07651 -0.28098,-0.1524 -0.32862,-0.16193 -0.75249,-0.16193 -0.40959,0 -0.47626,0.0143 -0.70012,0.1381 -0.1381,0.0762 -0.43816,0.30957 -0.66676,0.52389 -1.88124,1.7336 -3.98156,3.0338 -6.36288,3.92918 -0.72393,0.27147 -1.78124,0.59057 -2.36704,0.71916 -1.77169,0.38577 -2.3813,0.44769 -4.28637,0.45245 -1.47164,0 -1.72406,-0.009 -2.42894,-0.10954 -1.44308,-0.2048 -2.47656,-0.45245 -3.83392,-0.91919 -2.43848,-0.83346 -4.81027,-2.24797 -6.71056,-4.00538 -0.65247,-0.60009 -0.89537,-0.72392 -1.43354,-0.72868 -0.33816,0 -0.41912,0.0191 -0.70012,0.15717 -0.33814,0.16669 -0.67152,0.49055 -0.82869,0.80489 -0.0715,0.14764 -0.0905,0.28576 -0.0905,0.72868 0,0.68582 0.0333,0.75726 0.60961,1.32401 1.56215,1.53357 3.78154,3.03857 5.96282,4.04348 2.40038,1.10493 5.00554,1.79075 7.66786,2.0146 0.53817,0.0429 3.12904,0.0667 3.1719,0.0286 z"
           id="path1102"
           style="fill:#f3f7d4;fill-opacity:1;stroke:none;stroke-width:0.00476264" />
        <path
           d="m 282.62961,47.434375 c 3.74819,-0.31433 7.43447,-1.96221 10.01105,-4.48164 0.52865,-0.51436 0.60963,-0.69058 0.60963,-1.3002 0,-0.42387 -0.0137,-0.50008 -0.12866,-0.71439 -0.17143,-0.3191 -0.5096,-0.66201 -0.81442,-0.81918 -0.1905,-0.0952 -0.33815,-0.12859 -0.62866,-0.14764 -0.57628,-0.0286 -0.8049,0.0762 -1.41451,0.6382 -0.5858,0.54293 -1.41449,1.17637 -2.03841,1.5669 -1.06682,0.66201 -2.50514,1.27639 -3.6196,1.54786 -0.22384,0.0524 -0.48102,0.11906 -0.57151,0.14288 -0.0905,0.0238 -0.47628,0.0905 -0.85727,0.1524 -0.98587,0.1524 -2.61946,0.1524 -3.62913,0 -2.67185,-0.40959 -5.06269,-1.54786 -7.01537,-3.34337 -0.62391,-0.57152 -0.8668,-0.69058 -1.40498,-0.69058 -0.34292,0 -0.44292,0.019 -0.67154,0.13334 -0.30004,0.14289 -0.69534,0.53342 -0.84774,0.8287 -0.21908,0.4334 -0.20477,1.06683 0.0285,1.50023 0.23813,0.43817 1.61454,1.60978 2.74329,2.34322 2.22415,1.43832 4.60071,2.29559 7.24873,2.6004 0.60009,0.0714 2.37655,0.0952 3.00047,0.0429 z"
           id="path1104"
           style="fill:#cde534;fill-opacity:1;stroke:none;stroke-width:0.00476264" />
        <path
           d="m 282.46291,41.309625 c 0.49057,-0.0524 1.52881,-0.28576 2.0908,-0.4715 1.505,-0.50484 2.83854,-1.30496 3.9006,-2.34798 0.562,-0.55247 0.65249,-0.73345 0.64771,-1.29067 -0.005,-0.32863 -0.0285,-0.45722 -0.12385,-0.66677 -0.25242,-0.54771 -0.73822,-0.93824 -1.30021,-1.04778 -0.24289,-0.0476 -0.33812,-0.0429 -0.59054,0.0238 -0.3715,0.0952 -0.60487,0.23813 -1.00494,0.61915 -1.29067,1.22399 -2.93378,1.88124 -4.71024,1.88124 -1.84314,0 -3.43861,-0.64772 -4.84359,-1.96221 -0.47626,-0.44292 -0.69534,-0.53818 -1.25734,-0.53818 -0.50007,0 -0.76202,0.1143 -1.13826,0.49056 -0.36672,0.37148 -0.50485,0.69058 -0.50485,1.20018 0,0.56199 0.12866,0.81441 0.69059,1.34783 1.57167,1.50023 3.66245,2.47657 5.85804,2.74804 0.37148,0.0429 1.90029,0.0572 2.28606,0.0143 z"
           id="path1106"
           style="fill:#7fbd32;fill-opacity:1;stroke:none;stroke-width:0.00476264" />
        <path
           d="m 285.53806,33.351406 c -1.20169,0.871637 -2.50737,1.307455 -3.91704,1.307455 -1.82565,0 -3.46642,-0.730636 -4.92231,-2.191908 -1.4559,-1.461273 -2.18384,-3.191725 -2.18384,-5.19136 v -8.383084 h 3.15443 v 8.421539 c 0,0.333273 0.19643,0.884454 0.58929,1.653544 0.7395,1.461274 1.86031,2.191907 3.36243,2.191907 0.46218,0 1.09768,-0.166636 1.90651,-0.499909 0.43908,-0.179453 0.88972,-0.653725 1.35191,-1.422815 0.4853,-0.794727 0.72794,-1.448454 0.72794,-1.961182 v -8.383084 h 3.15443 v 8.169652 c 0.0731,2.124622 -1.47197,5.051923 -3.22375,6.289245 z"
           style="font-size:29.1377px;line-height:1.25;font-family:MammaGamma;-inkscape-font-specification:MammaGamma;fill:#7fbd32;stroke-width:0.91276"
           id="path1108"
           sodipodi:nodetypes="csssccscsccscccc" />
      </g>
      <g
         id="g1081">
        <g
           aria-label="T"
           id="g1112"
           style="font-size:47.4646px;line-height:1.25;stroke-width:1.18662"
           transform="matrix(0.81868345,0,0,0.81868345,-35.786318,22.928304)">
          <path
             d="m 134.50669,9.5482095 c 0.0436,0.022773 0.46352,0.3090142 0.60257,0.6025775 0.13906,0.293564 0.085,0.540776 -0.16223,0.741635 -0.30901,0.200859 -0.65665,0.324465 -1.04292,0.370817 -0.38627,0.0309 -0.91159,0 -1.57597,-0.0927 -0.64893,-0.09271 -1.02748,-0.139057 -1.13563,-0.139057 -3.22479,-0.197863 0.0818,-0.207564 -2.8173,-0.162232 -0.27811,0 -0.50987,0.10043 -0.69528,0.301289 -0.18541,0.185409 -0.27811,0.417169 -0.27811,0.695282 0,0.0309 -0.0232,1.413739 -0.0695,4.148517 -0.0463,3.01289 -0.10814,7.933943 -0.18541,14.763159 -0.0773,6.829217 -6.2e-4,4.393451 -0.0624,8.03982 -0.58326,2.428918 -3.52006,6.354379 -3.52006,6.354379 0.0155,-0.803437 0.0752,-1.57783 0.10604,-3.200155 0.0309,-1.606875 0.0541,-2.81203 0.0695,-3.615467 0.12361,-7.339091 0.22404,-12.893623 0.30129,-16.663598 0.0155,-0.64893 0.0309,-1.653226 0.0463,-3.012889 0.0155,-1.359663 0.0309,-2.572545 0.0464,-3.638644 0.0309,-1.066099 0.0773,-2.078121 0.13906,-3.036066 0.0155,-0.293563 -0.0772,-0.540775 -0.27811,-0.741634 -0.18541,-0.21631 -0.4249,-0.324465 -0.71846,-0.324465 -4.80517,0.0927 -4.28011,0.265481 -4.60038,0.463521 -0.10815,0.200859 -0.30129,0.31674 -0.5794,0.347642 -0.26267,0.0309 -0.4867,-0.01545 -0.67211,-0.139057 -0.0927,-0.04635 -0.14678,-0.07725 -0.16223,-0.0927 h -0.0927 c -0.35537,-0.01545 -0.70301,-0.146784 -1.04292,-0.393993 -0.33991,-0.262663 -0.56395,-0.563952 -0.67211,-0.903867 -0.0927,-0.3244653 -0.0541,-0.6025783 0.11588,-0.834339 0.18541,-0.2472115 0.44808,-0.3630918 0.78799,-0.3476411 3.09015,0.2472115 1.00809,0.4171693 7.21928,0.5098736 0.24721,0 0.46352,-0.077254 0.64893,-0.2317607 0.20086,-0.1699579 0.31674,-0.3862679 0.34764,-0.6489301 0.0463,-0.3090143 0.24719,-0.4944228 0.60258,-0.5562257 0.37081,-0.077254 0.6721,-0.054078 0.90386,0.069528 0.47897,0.1545071 0.84207,0.4557961 1.08928,0.9038669 0.21631,0.3399157 0.50214,0.5098736 0.85751,0.5098736 3.44598,-0.036155 -0.67419,0.0141 2.63189,-0.2085845 0.23176,-0.015451 0.57168,-0.038627 1.01975,-0.069528 0.46352,-0.046352 0.81116,-0.077253 1.04292,-0.092704 0.61803,-0.046352 1.08693,-0.00242 1.78456,0.324465 z"
             style="font-family:'Jack Roll Demo';-inkscape-font-specification:'Jack Roll Demo'"
             id="path1110"
             sodipodi:nodetypes="csccccccscsccccccccccccccccccccccccccccccc" />
        </g>
        <text
           xml:space="preserve"
           style="font-style:normal;font-weight:normal;font-size:28.6708px;line-height:1.25;font-family:sans-serif;fill:#000000;fill-opacity:1;stroke:none;stroke-width:0.71677"
           x="69.267006"
           y="50.283451"
           id="text1116"><tspan
             sodipodi:role="line"
             id="tspan1114"
             style="font-style:normal;font-variant:normal;font-weight:normal;font-stretch:normal;font-family:'Jack Roll Demo';-inkscape-font-specification:'Jack Roll Demo';stroke-width:0.71677"
             x="69.267006"
             y="50.283451">rain</tspan></text>
      </g>
    </g>
  </g>
</svg>
